<svg width="46" height="24" viewBox="0 0 46 24" fill="none" xmlns="http://www.w3.org/2000/svg">
<path d="M13.4849 22.3044C12.5163 23.2531 10.9455 23.2517 9.97854 22.3015L0.722562 13.2052C-0.242025 12.2572 -0.240682 10.7233 0.725565 9.77702L9.98156 0.711832C10.9478 -0.2345 12.514 -0.235816 13.4819 0.708891L22.7697 9.77406C23.7399 10.7211 23.7413 12.2595 22.7727 13.2081L13.4849 22.3044Z" fill="#0328EE"/>
<path d="M26.2795 22.3005C25.3126 23.2507 23.7417 23.2521 22.7731 22.3034L13.4853 13.2071C12.5167 12.2585 12.5181 10.7201 13.4884 9.77306L22.7761 0.707912C23.744 -0.236791 25.3102 -0.235477 26.2764 0.710852L35.5325 9.77602C36.4987 10.7223 36.5001 12.2562 35.5355 13.2042L26.2795 22.3005Z" fill="white"/>
<path d="M35.7633 22.3024C34.7956 23.2516 33.225 23.2516 32.2572 22.3024L22.9837 13.2058C22.017 12.2575 22.0183 10.7211 22.9867 9.77441L32.2602 0.709013C33.2273 -0.236338 34.7933 -0.236338 35.7603 0.709013L45.0337 9.77441C46.0022 10.7211 46.0035 12.2575 45.0368 13.2058L35.7633 22.3024Z" fill="#0328EE"/>
</svg>
