<svg width="34" height="26" viewBox="0 0 34 26" fill="none" xmlns="http://www.w3.org/2000/svg">
<path d="M19.2098 0.0837402H14.7308C14.263 0.0837402 13.8838 0.462953 13.8838 0.930736V24.7779C13.8838 25.2457 14.263 25.6249 14.7308 25.6249H19.2098C19.6776 25.6249 20.0568 25.2457 20.0568 24.7779V0.930736C20.0568 0.462953 19.6776 0.0837402 19.2098 0.0837402Z" fill="white"/>
<path d="M28.339 25.6244C31.237 25.6244 33.5863 23.2751 33.5863 20.3772C33.5863 17.4792 31.237 15.1299 28.339 15.1299C25.4411 15.1299 23.0918 17.4792 23.0918 20.3772C23.0918 23.2751 25.4411 25.6244 28.339 25.6244Z" fill="#0328EE"/>
<path d="M28.339 10.5782C31.237 10.5782 33.5863 8.22896 33.5863 5.33098C33.5863 2.43301 31.237 0.0837402 28.339 0.0837402C25.4411 0.0837402 23.0918 2.43301 23.0918 5.33098C23.0918 8.22896 25.4411 10.5782 28.339 10.5782Z" fill="#0328EE"/>
<path d="M5.60174 25.6244C8.49971 25.6244 10.849 23.2751 10.849 20.3772C10.849 17.4792 8.49971 15.1299 5.60174 15.1299C2.70376 15.1299 0.354492 17.4792 0.354492 20.3772C0.354492 23.2751 2.70376 25.6244 5.60174 25.6244Z" fill="#0328EE"/>
</svg>
