<svg width="28" height="29" viewBox="0 0 28 29" fill="none" xmlns="http://www.w3.org/2000/svg">
<path d="M22.1099 12.2436C18.3495 12.2436 15.297 9.20275 15.297 5.46553C15.297 4.97806 15.3551 4.51381 15.4479 4.04956H6.39502C2.88992 4.04956 0.0463867 6.88149 0.0463867 10.3634V22.0277C0.0463867 25.5212 2.88992 28.3415 6.39502 28.3415H18.1174C21.6341 28.3415 24.466 25.5096 24.466 22.0277V11.8142C23.7464 12.0811 22.9456 12.2436 22.1099 12.2436Z" fill="#0328EE"/>
<path d="M24.4769 22.0277V11.8142C23.7457 12.0811 22.9448 12.2436 22.1208 12.2436C18.3603 12.2436 15.3079 9.20275 15.3079 5.46553C15.3079 4.97806 15.3659 4.51381 15.4588 4.04956H6.40588C2.924 4.04956 0.103676 6.83507 0.057251 10.2938C8.41377 13.7408 17.0024 17.9307 24.4304 22.8285C24.4536 22.5616 24.4769 22.2946 24.4769 22.0277Z" fill="#0328EE"/>
<path d="M22.6314 9.90264C25.3589 9.90264 27.5641 7.70906 27.5641 4.99319C27.5641 2.28893 25.3589 0.0837402 22.6314 0.0837402C19.9039 0.0837402 17.6987 2.27732 17.6987 4.99319C17.6987 7.69745 19.9039 9.90264 22.6314 9.90264Z" fill="white"/>
</svg>
