<svg width="298" height="175" viewBox="0 0 298 175" fill="none" xmlns="http://www.w3.org/2000/svg">
<g clip-path="url(#clip0_388_1670)">
<path d="M204.536 124.432C203.959 122.896 152.825 21.8909 152.056 20.3547C149.364 13.8258 144.558 8.25706 138.215 4.41656C122.259 -4.80066 101.882 0.576051 92.6546 16.5142C86.3108 27.4596 86.6953 40.3253 92.8469 50.5026C93.4236 51.8468 142.252 148.628 143.213 150.164C143.79 151.7 144.558 153.044 145.327 154.58C148.019 161.109 152.825 166.678 159.168 170.518C175.124 179.736 195.501 174.551 204.728 158.613C211.264 147.667 210.688 134.61 204.536 124.432Z" fill="white" fill-opacity="0.4"/>
<path d="M145.523 56.0714C151.098 50.1186 154.558 42.0535 154.558 33.2204C154.558 14.978 139.756 0 121.301 0C109.959 0 99.9629 5.56873 94.0036 14.2099C92.8502 15.362 9.99629 117.52 9.03511 118.864C3.46025 124.816 0 132.882 0 141.715C0 160.149 14.9944 174.935 33.2569 174.935C44.5988 174.935 54.5951 169.366 60.5545 160.725C61.7079 159.381 144.754 57.4156 145.523 56.0714Z" fill="white"/>
<path d="M288.351 56.0712C293.926 50.1184 297.386 42.0534 297.386 33.2202C297.386 14.7858 282.392 -0.000183105 264.129 -0.000183105C252.787 -0.000183105 242.791 5.56855 236.832 14.2097C235.678 15.3618 152.632 117.519 151.671 118.863C146.096 124.816 142.636 132.881 142.636 141.715C142.636 160.149 157.63 174.935 175.893 174.935C187.235 174.935 197.231 169.366 203.19 160.725C204.536 159.381 287.39 57.4154 288.351 56.0712Z" fill="white"/>
</g>
<defs>
<clipPath id="clip0_388_1670">
<rect width="297.39" height="174.935" fill="white"/>
</clipPath>
</defs>
</svg>
