<svg width="46" height="46" viewBox="0 0 46 46" fill="none" xmlns="http://www.w3.org/2000/svg">
<rect width="46" height="46" rx="13" fill="#0328EE"/>
<g clip-path="url(#clip0_303_3189)">
<path d="M22.5917 41.1135C32.3073 41.1135 40.1834 33.2374 40.1834 23.5218C40.1834 13.8061 32.3073 5.93005 22.5917 5.93005C12.8761 5.93005 5 13.8061 5 23.5218C5 33.2374 12.8761 41.1135 22.5917 41.1135Z" fill="white" fill-opacity="0.4"/>
<path d="M26.0348 12.6579C26.0348 12.2124 25.4962 11.9893 25.1813 12.3043L13.711 23.7745C13.5906 23.8951 13.5086 24.0486 13.4754 24.2158C13.4422 24.3829 13.4593 24.5562 13.5244 24.7136C13.5896 24.8711 13.7 25.0057 13.8417 25.1004C13.9833 25.1952 14.1499 25.2458 14.3203 25.246H18.6487C18.9248 25.246 19.1487 25.4699 19.1487 25.746V34.3854C19.1487 34.8308 19.6872 35.0539 20.0022 34.7389L31.4725 23.2687C31.5929 23.1481 31.6749 22.9945 31.7081 22.8274C31.7413 22.6602 31.7242 22.487 31.659 22.3295C31.5938 22.1721 31.4834 22.0375 31.3418 21.9427C31.2001 21.848 31.0336 21.7973 30.8632 21.7972H26.5348C26.2587 21.7972 26.0348 21.5733 26.0348 21.2972V12.6579Z" fill="white"/>
</g>
<defs>
<clipPath id="clip0_303_3189">
<rect width="36" height="37" fill="white" transform="translate(5 5)"/>
</clipPath>
</defs>
</svg>
