<svg width="667" height="717" viewBox="0 0 667 717" fill="none" xmlns="http://www.w3.org/2000/svg">
<rect x="348.963" y="14.4504" width="318.694" height="660.844" rx="41.1643" transform="rotate(8.64559 348.963 14.4504)" fill="#1C1B2D"/>
<rect x="352.313" y="19.0049" width="309.702" height="652.846" rx="37.6241" transform="rotate(8.64559 352.313 19.0049)" fill="#23213B"/>
<rect x="321.954" y="172.145" width="1.99808" height="46.9889" rx="0.884738" transform="rotate(8.64559 321.954 172.145)" fill="#1C1B2D"/>
<rect x="313.087" y="230.461" width="1.99808" height="46.9889" rx="0.884738" transform="rotate(8.64559 313.087 230.461)" fill="#1C1B2D"/>
<rect x="328.567" y="128.655" width="2.99712" height="22.9946" rx="0.884738" transform="rotate(8.64559 328.567 128.655)" fill="#1C1B2D"/>
<rect x="635.181" y="252.131" width="2.99712" height="72.9828" rx="0.884738" transform="rotate(8.64559 635.181 252.131)" fill="#1C1B2D"/>
<rect x="358.862" y="29.1018" width="292.719" height="634.851" rx="31.0294" transform="rotate(8.64559 358.862 29.1018)" fill="#353447"/>
<rect x="460.529" y="51.6392" width="85.9174" height="24.9941" rx="12.4971" transform="rotate(8.64559 460.529 51.6392)" fill="#1C1B2D"/>
<rect x="2.98547" y="28.7356" width="318.694" height="660.844" rx="41.1643" transform="rotate(-5.06 2.98547 28.7356)" fill="#1C1B2D"/>
<rect x="7.31873" y="32.3667" width="309.702" height="652.846" rx="37.6241" transform="rotate(-5.06 7.31873 32.3667)" fill="#23213B"/>
<rect x="14.1085" y="188.339" width="1.99808" height="46.9889" rx="0.884738" transform="rotate(-5.06 14.1085 188.339)" fill="#1C1B2D"/>
<rect x="19.311" y="247.095" width="1.99808" height="46.9889" rx="0.884738" transform="rotate(-5.06 19.311 247.095)" fill="#1C1B2D"/>
<rect x="10.2286" y="144.521" width="2.99712" height="22.9946" rx="0.884738" transform="rotate(-5.06 10.2286 144.521)" fill="#1C1B2D"/>
<rect x="337.367" y="191.834" width="2.99712" height="72.9828" rx="0.884738" transform="rotate(-5.06 337.367 191.834)" fill="#1C1B2D"/>
<rect x="16.0735" y="40.6245" width="292.719" height="634.851" rx="31.0294" transform="rotate(-5.06 16.0735 40.6245)" fill="#353447"/>
<rect x="120.186" y="38.4319" width="85.9174" height="24.9941" rx="12.4971" transform="rotate(-5.06 120.186 38.4319)" fill="#1C1B2D"/>
</svg>
