<svg width="458" height="935" viewBox="0 0 458 935" fill="none" xmlns="http://www.w3.org/2000/svg">
<g clip-path="url(#clip0_356_3270)">
<path fill-rule="evenodd" clip-rule="evenodd" d="M453.575 56.3811C453.575 25.2423 428.109 0.00292969 396.687 0.00292969H56.8848C25.4633 0.00292969 -0.00305176 25.2423 -0.00305176 56.3811V878.623C-0.00305176 909.762 25.4633 935.001 56.8848 935.001H396.687C428.109 935.001 453.575 909.762 453.575 878.623V56.3811ZM453.579 333.941H455.851C457.037 333.941 457.998 334.903 457.998 336.089V397.207C457.998 398.393 457.037 399.355 455.851 399.355H453.579V333.941ZM455.851 158.959H453.579V278.643H455.851C457.037 278.643 457.998 277.682 457.998 276.496V161.106C457.998 159.92 457.037 158.959 455.851 158.959Z" fill="#1C1B2D"/>
<path fill-rule="evenodd" clip-rule="evenodd" d="M444.088 56.3783V878.62C444.088 904.555 422.863 925.593 396.687 925.593H56.8848C30.7088 925.593 9.48389 904.555 9.48389 878.62V56.3783C9.48389 30.4432 30.7088 9.40576 56.8848 9.40576H396.687C422.863 9.40576 444.088 30.4432 444.088 56.3783Z" fill="#23213B"/>
<path fill-rule="evenodd" clip-rule="evenodd" d="M434.345 56.379V878.621C434.345 899.213 417.483 915.91 396.691 915.91H56.8885C36.0966 915.91 19.2346 899.213 19.2346 878.621V56.379C19.2346 35.7868 36.0966 19.0903 56.8885 19.0903H396.691C417.483 19.0903 434.345 35.7868 434.345 56.379Z" fill="#353447"/>
<path d="M226.794 46.8571C232.737 46.8571 237.555 42.0808 237.555 36.1888C237.555 30.2969 232.737 25.5205 226.794 25.5205C220.851 25.5205 216.033 30.2969 216.033 36.1888C216.033 42.0808 220.851 46.8571 226.794 46.8571Z" fill="#1C1B2D"/>
</g>
<defs>
<clipPath id="clip0_356_3270">
<rect width="458" height="935" fill="white"/>
</clipPath>
</defs>
</svg>
